<svg xmlns="http://www.w3.org/2000/svg" width="115.002" height="129.253" viewBox="0 0 115.002 129.253"><g transform="translate(0 -0.268)"><path d="M115,38.268a11.413,11.413,0,0,0-1.406-5.742,10.98,10.98,0,0,0-4.161-4.053Q86.465,15.231,63.49,2.007a11.278,11.278,0,0,0-12.222.121C45.174,5.722,14.664,23.2,5.573,28.468a10.619,10.619,0,0,0-5.567,9.8Q0,64.894,0,91.524a11.463,11.463,0,0,0,1.344,5.632,10.942,10.942,0,0,0,4.223,4.164c9.092,5.266,39.606,22.744,45.7,26.339a11.279,11.279,0,0,0,12.225.121q22.958-13.256,45.943-26.465a10.946,10.946,0,0,0,4.223-4.163A11.479,11.479,0,0,0,115,91.519s0-35.5-.006-53.251" transform="translate(0 0)" fill="#fff"/><path d="M59.32,143.509,2.988,175.944a10.942,10.942,0,0,0,4.223,4.164c9.092,5.266,39.606,22.744,45.7,26.339a11.279,11.279,0,0,0,12.225.121q22.958-13.256,45.943-26.465a10.946,10.946,0,0,0,4.223-4.163L59.32,143.509" transform="translate(-1.644 -78.788)" fill="#fff"/><path d="M91.1,153.117a19.012,19.012,0,0,0,33.08-.11l-16.4-9.5L91.1,153.117" transform="translate(-50.109 -78.788)" fill="#fff"/><path d="M185.5,77.7a11.413,11.413,0,0,0-1.406-5.742l-55.914,32.195,55.981,32.431a11.479,11.479,0,0,0,1.344-5.633s0-35.5-.006-53.251" transform="translate(-70.505 -39.433)" fill="#fff"/><path d="M213.174,137.967H208.8v4.375h-4.375v-4.375H200.05v-4.374h4.374v-4.375H208.8v4.375h4.375v4.374m-15.962,0h-4.374v4.375h-4.375v-4.375h-4.374v-4.374h4.374v-4.375h4.375v4.375h4.374v4.374" transform="translate(-101.256 -70.928)" fill="#1d1d1d"/><path d="M97.678,106.534a19.017,19.017,0,1,1-.124-18.866L114.176,78.1a38.19,38.19,0,1,0,.1,38.053l-16.6-9.616" transform="translate(-23.605 -32.316)" fill="#1d1d1d"/></g></svg>