<svg xmlns="http://www.w3.org/2000/svg" width="107.936" height="123.7" viewBox="0 0 107.936 123.7"><path d="M117.5,33.5l.3-.2a6.753,6.753,0,0,0-2.4-2.6L67.1,2.9A5.93,5.93,0,0,0,64,2.2a7.094,7.094,0,0,0-3.1.7l-48,27.9A6.871,6.871,0,0,0,10,36.2V91.9a6.212,6.212,0,0,0,.9,3.4l-.2.1a5.744,5.744,0,0,0,1.9,1.9l48.2,27.9a5.93,5.93,0,0,0,3.1.7,7.094,7.094,0,0,0,3.1-.7l48-27.9a6.871,6.871,0,0,0,2.9-5.4V36.1a4.894,4.894,0,0,0-.4-2.6ZM64,88.5A24.509,24.509,0,0,0,85.3,76.1l12.9,7.6a39.513,39.513,0,1,1,.1-39.2L85.3,52A24.478,24.478,0,1,0,64,88.5Z" transform="translate(-10 -2.2)" fill="#fff"/></svg>