<svg xmlns="http://www.w3.org/2000/svg" width="63.465" height="64" viewBox="0 0 63.465 64"><g transform="translate(-0.267 0)"><path d="M17.582,17.424l-4.138-4.14.016,29.9.05,1.4a10.035,10.035,0,0,0,.345,2.17L46.63,58.313l8.2-3.63.007-.012L17.58,17.424Z" fill="#fff"/><path d="M13.856,46.753h0a.276.276,0,0,0-.014-.04.211.211,0,0,1,.01.04Zm40.966,7.93-8.2,3.63-32.77-11.56a15.626,15.626,0,0,0,3.5,6.58L28.044,63.97,51.832,64l2.98-9.317Z" fill="#fff"/><path d="M13.556,13.285.813,32.53c-1.058,1.13-.53,3.462,1.173,5.18l7.356,7.416,4.624,1.63a9.864,9.864,0,0,1-.345-2.17l-.05-1.4-.015-29.9Z" fill="#fff"/><path d="M46.9,13.67a10.222,10.222,0,0,0-2.173-.337l-1.478-.054-29.805.007L54.836,54.672l3.636-8.2L46.9,13.672Z" fill="#fff"/><path d="M46.862,13.663a.215.215,0,0,0,.038.01v0a.257.257,0,0,1-.038-.008Zm6.615,3.518A15.331,15.331,0,0,0,46.9,13.673l11.57,32.8-3.64,8.2,8.882-2.838.02-24.352L53.476,17.18Z" fill="#fff"/><path d="M45.278,9.075l-7.4-7.36C36.152.018,33.82-.512,32.7.544L13.456,13.284l29.805-.007,1.478.054a10.276,10.276,0,0,1,2.173.337L45.28,9.073Zm-31.833,4.2" fill="#fff"/></g></svg>