<svg xmlns="http://www.w3.org/2000/svg" xmlns:xlink="http://www.w3.org/1999/xlink" width="51.687" height="64.005" viewBox="0 0 51.687 64.005"><defs><clipPath id="a"><path d="M59.118,30.81,41.889,48.045,59.118,65.28H39.431L22.2,48.045,39.431,30.81ZM39.431,1.276l-32,32,9.847,9.847L59.118,1.276Z" fill="#fff"/></clipPath></defs><g transform="translate(-7.431 -1.276)"><g clip-path="url(#a)"><path d="M22.2,48.045l9.841,9.847L59.118,30.81H39.431Z" fill="#fff"/></g><g clip-path="url(#a)"><path d="M39.431,1.276H59.118L17.278,43.122,7.431,33.275Z" fill="#fff"/></g><g clip-path="url(#a)"><path d="M32.042,57.892l7.388,7.382H59.118L41.889,48.045Z" fill="#fff"/></g><g clip-path="url(#a)"><path d="M46.646,52.833l-4.757-4.788-9.847,9.847Z" fill="#fff"/></g><g clip-path="url(#a)"><path d="M22.2,48.042l9.847-9.847L41.9,48.042l-9.848,9.847Z" fill="#fff"/></g><path d="M59.118,30.81,41.889,48.045,59.118,65.28H39.431L22.2,48.045,39.431,30.81ZM39.431,1.276l-32,32,9.847,9.847L59.118,1.276Z" fill="#fff"/></g></svg>