<svg xmlns="http://www.w3.org/2000/svg" width="204.799" height="105.762" viewBox="0 0 204.799 105.762"><g transform="translate(0 -0.003)"><path d="M0,96.334H6.747V69.7L17.192,92.927c1.232,2.8,2.92,3.806,6.228,3.806s4.93-1,6.164-3.806L40.03,69.7V96.344h6.748v-26.6c0-2.6-1.04-3.85-3.18-4.5-5.125-1.6-8.564-.216-10.12,3.244L23.228,91.413,13.3,68.48c-1.492-3.46-4.995-4.844-10.12-3.244-2.142.649-3.18,1.9-3.18,4.5ZM52.386,74.648h6.745v14.68c-.063.8.256,2.67,3.952,2.727,1.886.03,14.554,0,14.672,0V74.575h6.76c.03,0-.007,23.834-.006,23.936.037,5.878-7.294,7.155-10.672,7.254h-21.3v-4.54H73.875c4.342-.46,3.83-2.617,3.83-3.344V96.11H63.365c-6.672-.06-10.92-2.973-10.973-6.323-.005-.3.144-15,0-15.14Z" fill="#fff"/><path d="M89.716,96.334h19.4a14.964,14.964,0,0,0,6.23-1.3c2.92-1.34,4.347-3.157,4.347-5.536V84.57c0-1.947-1.622-3.763-4.8-4.974a16.57,16.57,0,0,0-5.774-1h-8.175c-2.724,0-4.022-.822-4.346-2.638a1.959,1.959,0,0,1-.065-.606v-3.07a1.8,1.8,0,0,1,.065-.563c.324-1.384,1.038-1.774,3.438-2,.195,0,.454-.044.65-.044h19.268v-4.5H101.008a18.2,18.2,0,0,0-5.45.562C91.532,67,89.78,69,89.78,72.46V76.4c0,3.028,3.44,5.623,9.212,6.228.65.043,1.3.086,1.946.086h7.007a3.549,3.549,0,0,1,.714.044c2.14.173,3.05.562,3.7,1.34a1.582,1.582,0,0,1,.52,1.2V89.23a2.25,2.25,0,0,1-.973,1.6,4.78,4.78,0,0,1-2.855.952c-.26,0-.454.043-.713.043H89.716v4.5Zm72.064-7.828c0,4.628,3.438,7.223,10.38,7.742q.971.075,1.946.086h17.582v-4.5H173.976c-3.957,0-5.45-1-5.45-3.374V65.192h-6.747V88.5Zm-37.785.234V72.705c0-4.074,2.86-6.545,8.516-7.325a12.938,12.938,0,0,1,1.821-.13h12.807a13.872,13.872,0,0,1,1.886.13c5.656.78,8.516,3.25,8.516,7.325V88.74c0,3.305-1.215,5.074-4.015,6.227l6.646,6h-7.834l-5.377-4.854-5.413.343h-7.216a14.955,14.955,0,0,1-3.966-.564c-4.3-1.17-6.37-3.424-6.37-7.152Zm7.283-.4a2.979,2.979,0,0,0,.13.694c.4,1.864,2.145,2.9,4.8,2.9h6.13l-5.63-5.083h7.834l4.9,4.433a3.161,3.161,0,0,0,1.7-2.167,2.208,2.208,0,0,0,.065-.65V73.1a2.042,2.042,0,0,0-.065-.607c-.4-1.733-2.146-2.73-4.746-2.73H136.22c-3,0-4.94,1.3-4.94,3.337V88.352Z" fill="#fff"/><path d="M197.624,57.73c-4.147-.112-7.316.273-10.024,1.415-.77.325-2,.333-2.123,1.3.423.443.49,1.1.825,1.65a13.013,13.013,0,0,0,2.713,3.184c1.064.8,2.16,1.663,3.3,2.36,2.03,1.238,4.3,1.945,6.25,3.184,1.152.73,2.3,1.65,3.42,2.476.555.408.93,1.042,1.65,1.3v-.118c-.38-.483-.477-1.147-.825-1.65l-1.533-1.533a24.969,24.969,0,0,0-5.425-5.19c-1.613-1.158-5.224-2.722-5.9-4.6l-.118-.118a26.277,26.277,0,0,0,3.54-.825c1.773-.475,3.358-.353,5.19-.825l2.477-.708v-.472c-.926-.95-1.586-2.207-2.6-3.066a75.77,75.77,0,0,0-8.49-6.37c-1.646-1.04-3.68-1.714-5.425-2.6-.587-.3-1.618-.45-2.005-.944a25.368,25.368,0,0,1-2.122-4c-1.48-2.85-2.934-5.964-4.246-8.963a48.586,48.586,0,0,0-2.594-5.9c-5.355-8.8-11.12-14.118-20.048-19.34a24.051,24.051,0,0,0-6.6-2.123l-3.892-.236a20.626,20.626,0,0,1-2.36-1.77c-2.958-1.87-10.545-5.933-12.736-.6-1.383,3.373,2.067,6.664,3.3,8.374a25.286,25.286,0,0,1,2.594,3.892c.407.886.478,1.775.826,2.713a63.126,63.126,0,0,0,2.712,6.958,24.544,24.544,0,0,0,1.887,3.184c.435.593,1.18.854,1.3,1.77-.728,1.02-.77,2.6-1.18,3.892-1.843,5.812-1.148,13.035,1.533,17.337.823,1.32,2.76,4.152,5.425,3.066,2.33-.95,1.8-3.89,2.477-6.486.15-.59.058-1.02.354-1.415v.118l2.123,4.245A28.909,28.909,0,0,0,158,57.259c1.225.925,2.2,2.525,3.774,3.066v-.118h-.118c-.307-.48-.787-.677-1.18-1.06a27.075,27.075,0,0,1-2.713-3.066,71.592,71.592,0,0,1-5.778-9.435c-.826-1.587-1.545-3.338-2.24-4.953-.268-.623-.265-1.564-.825-1.887-.763,1.184-1.887,2.14-2.477,3.538-.944,2.234-1.066,4.958-1.415,7.784-.207.074-.115.023-.236.118-1.642-.4-2.22-2.087-2.83-3.538a22.3,22.3,0,0,1-.472-13.8c.35-1.092,1.94-4.534,1.3-5.543-.307-1.007-1.32-1.6-1.887-2.36a18.585,18.585,0,0,1-1.887-3.3c-1.264-2.86-1.854-6.07-3.184-8.963a25.633,25.633,0,0,0-2.594-4,23.609,23.609,0,0,1-2.83-4c-.27-.585-.636-1.52-.236-2.123a.93.93,0,0,1,.708-.708c.684-.527,2.59.175,3.3.472a28.838,28.838,0,0,1,5.072,2.595c.77.5,1.547,1.5,2.476,1.77h1.06c1.66.382,3.52.12,5.07.59a30.7,30.7,0,0,1,7.43,3.538,45.953,45.953,0,0,1,16.157,17.7c.612,1.173.876,2.294,1.415,3.538,1.087,2.5,2.456,5.093,3.538,7.547a35.217,35.217,0,0,0,3.656,6.958c.8,1.07,3.9,1.646,5.307,2.24a31.28,31.28,0,0,1,3.538,1.415c1.785,1.077,3.515,2.36,5.19,3.54.837.59,3.41,1.883,3.538,2.948Z" fill="#fff"/><path d="M144.91,12.8a8.391,8.391,0,0,0-2.123.236v.118h.118a16.116,16.116,0,0,0,1.65,2.123l1.18,2.476.118-.118a2.877,2.877,0,0,0,1.06-2.6c-.293-.308-.336-.694-.59-1.062-.337-.49-1-.768-1.415-1.18Z" fill="#fff" fill-rule="evenodd"/><path d="M194.855,91.708a4.972,4.972,0,1,0,4.972-4.972A4.906,4.906,0,0,0,194.855,91.708Zm8.83,0a3.861,3.861,0,1,1-3.86-3.938A3.847,3.847,0,0,1,203.685,91.708Zm-2.52,2.838h1.113l-1.63-2.492c.875-.093,1.537-.518,1.537-1.552,0-1.154-.73-1.63-2.134-1.63h-2.215v5.675h.955V92.094h.888l1.485,2.453Zm-2.374-3.25v-1.63h1.1c.57,0,1.26.106,1.26.77,0,.795-.623.862-1.34.862h-1.02Z" fill="#fff" fill-rule="evenodd"/></g></svg>