<svg xmlns="http://www.w3.org/2000/svg" width="52.126" height="48.89" viewBox="0 0 52.126 48.89"><g transform="translate(-33.924 -16.583)"><path d="M-5.632,9.754A11.263,11.263,0,0,1-10.879-2.915,11.263,11.263,0,0,1,0-11.263,11.263,11.263,0,0,1,10.879-2.915,11.263,11.263,0,0,1,5.632,9.754L2.241,3.88A4.481,4.481,0,0,0,4.328-1.16,4.481,4.481,0,0,0,0-4.481,4.481,4.481,0,0,0-4.328-1.16,4.481,4.481,0,0,0-2.24,3.88Z" transform="translate(61.924 27.846)" fill="#fff"/><path d="M-5.632,9.754A11.263,11.263,0,0,1-10.879-2.915,11.263,11.263,0,0,1,0-11.263,11.263,11.263,0,0,1,10.879-2.915,11.263,11.263,0,0,1,5.632,9.754L2.241,3.88A4.481,4.481,0,0,0,4.328-1.16,4.481,4.481,0,0,0,0-4.481,4.481,4.481,0,0,0-4.328-1.16,4.481,4.481,0,0,0-2.24,3.88Z" transform="translate(74.786 50.087) rotate(180)" fill="#fff"/><path d="M-5.632,9.755A11.264,11.264,0,0,1-10.88-2.915,11.264,11.264,0,0,1,0-11.264,11.264,11.264,0,0,1,10.88-2.915,11.264,11.264,0,0,1,5.632,9.755L2.241,3.881A4.481,4.481,0,0,0,4.328-1.16,4.481,4.481,0,0,0,0-4.481,4.481,4.481,0,0,0-4.328-1.16,4.481,4.481,0,0,0-2.24,3.881Z" transform="translate(49.311 50.086) rotate(-119.998)" fill="#fff"/></g></svg>