<svg xmlns="http://www.w3.org/2000/svg" width="164.354" height="98.612" viewBox="0 0 164.354 98.612"><path d="M82.177,0Q49.307,0,41.089,32.871,53.415,16.435,69.851,20.544c6.251,1.563,10.72,6.1,15.666,11.118,8.057,8.179,17.382,17.644,37.749,17.644q32.87,0,41.089-32.871-12.327,16.436-28.762,12.327c-6.251-1.563-10.72-6.1-15.666-11.118C111.869,9.465,102.545,0,82.177,0ZM41.089,49.306Q8.218,49.306,0,82.177,12.327,65.741,28.762,69.851c6.251,1.563,10.72,6.1,15.666,11.118,8.057,8.179,17.382,17.644,37.749,17.644q32.87,0,41.089-32.871Q110.939,82.177,94.5,78.068c-6.251-1.563-10.72-6.1-15.666-11.118C70.781,58.771,61.456,49.306,41.089,49.306Z" fill="#fff"/></svg>