<svg xmlns="http://www.w3.org/2000/svg" width="60.374" height="64" viewBox="0 0 60.374 64"><g transform="translate(-1.813)"><path d="M27.733,34.453l8.64-5.013,8.533,5.013L36.373,39.36l-8.64-4.8ZM1.813,19.627,36.373,0,62.08,14.613,53.547,29.44,36.374,19.627l-25.92,14.72Z" fill="#fff"/><path d="M27.733,54.08V44.267l8.533-4.907,8.64-4.907v9.813l-8.533,4.907v9.813L27.733,64Zm0-19.627-8.64-4.907-8.64,4.8V24.533l25.92-14.72V29.44Zm25.707-9.92V19.626l8.64-5.013.107,9.813-8.64,5.013Z" fill="#fff"/><path d="M19.093,58.773V29.547l8.533-4.8.107,9.707,8.64,4.8v9.92l-8.64-4.587V64ZM6.08,31.787l-4.267-2.56v-9.6l8.64,4.907v9.813Zm30.293-12.16V9.813L53.44,19.626l.107,9.813L36.374,19.626Z" fill="#fff"/></g></svg>